
<svg height="3.4375rem" preserveAspectRatio="xMidYMid" viewBox="0 0 256 367" width="3.4375rem" xmlns="http://www.w3.org/2000/svg"><path d="m70.5853976 271.865254c10.614162 13.526124 20.2744618 27.774283 28.9109362 42.641286 7.3738402 13.982879 10.4474762 23.46353 15.8371612 40.310806 3.304519 9.307489 6.291574 12.085306 12.71302 12.085306 6.998654 0 10.173301-4.725896 12.626438-12.0348 5.093866-15.909312 9.091035-28.052338 15.397039-39.524359 12.37391-22.150381 27.749304-41.833194 42.85774-60.751206 4.090966-5.35361 30.534335-36.54452 42.439262-61.155252 0 0 14.632239-27.035008 14.632239-64.791667 0-35.3179512-14.430216-59.8132415-14.430216-59.8132415l-41.544589 11.1256959-25.231231 66.4511406-6.241068 9.163187-1.248214 1.659475-1.659475 2.077951-2.914903 3.318949-4.163117 4.163117-22.467845 18.304728-56.169613 32.431909z" fill="#34a853"/><path d="m12.6120081 188.891517c13.7087044 31.313567 40.1448587 58.839202 58.0311104 82.995383l95.0013215-112.534034s-13.384024 17.503851-37.662861 17.503851c-27.042224 0-48.8895695-21.594817-48.8895695-48.824633 0-18.672698 11.2339225-31.5011595 11.2339225-31.5011595l-64.4886317 17.2801825z" fill="#fbbc04"/><path d="m166.705061 5.78651629c31.551666 10.17330171 58.557813 31.53002021 74.892817 63.02396491l-75.924577 90.4774488s11.233922-13.059344 11.233922-31.616601c0-27.8647456-23.46353-48.680331-48.810203-48.680331-23.968587 0-37.7350124 17.4749906-37.7350124 17.4749906v-56.99935z" fill="#4285f4"/><path d="m30.0148476 45.7654275c18.8458611-22.5472113 52.0064956-45.7654275 97.7214174-45.7654275 22.179241 0 38.88943 5.82259183 38.88943 5.82259183l-76.3358385 90.69390247h-54.0844466z" fill="#1a73e8"/><path d="m12.6120081 188.891517s-12.6120081-24.697313-12.6120081-60.477032c0-33.8172093 13.145926-63.3775051 30.0148476-82.6490575l60.3182995 50.7582819z" fill="#ea4335"/></svg>
